<svg width="41" height="42" viewBox="0 0 41 42" fill="none" xmlns="http://www.w3.org/2000/svg">
<g id="Group 6">
<path id="Path 5" opacity="0.432152" fill-rule="evenodd" clip-rule="evenodd" d="M21.9318 31L5.50341 19.2144C5.50341 19.2144 12.448 6.49162 21.9357 6.49799C31.4224 6.5056 38.5031 19.2132 38.5031 19.2132L21.9318 31Z" fill="#C69BCE"/>
<g id="videocam-24px">
<path id="Path" d="M20.7079 27.7863H18.3162C17.9403 27.7863 17.6328 28.099 17.6328 28.4813V36.8216C17.6328 37.2038 17.9403 37.5166 18.3162 37.5166H25.1496C25.5254 37.5166 25.8329 37.2038 25.8329 36.8216V28.4813C25.8329 28.099 25.5254 27.7863 25.1496 27.7863H22.7579L24.3228 26.1947C24.7533 25.7568 24.4458 25.0062 23.8376 25.0062H19.6213C19.0132 25.0062 18.7057 25.7568 19.1362 26.1947L20.7079 27.7863Z" fill="#BD7CCA"/>
</g>
</g>
</svg>
