<?xml version="1.0" encoding="UTF-8"?>
<svg width="28px" height="27px" viewBox="0 0 28 27" version="1.1" xmlns="http://www.w3.org/2000/svg" xmlns:xlink="http://www.w3.org/1999/xlink">
    <title>9D4DAE63-6116-4F25-A565-66E838F60D51</title>
    <g id="Description" stroke="none" stroke-width="1" fill="none" fill-rule="evenodd">
        <g id="Select-a-signboard" transform="translate(-317.000000, -96.000000)">
            <g id="Group-13-Copy" transform="translate(30.500000, 83.000000)">
                <g id="Group-8" transform="translate(273.500000, 12.500000)">
                    <g id="open_with-24px" transform="translate(13.500000, 0.500000)">
                        <polygon id="Path" points="0 0 27 0 27 27 0 27"></polygon>
                        <path d="M11.8125,10.125 L15.1875,10.125 C15.5025,10.125 15.75,9.8775 15.75,9.5625 L15.75,6.75 L17.76375,6.75 C18.27,6.75 18.5175,6.1425 18.1575,5.79375 L13.89375,1.53 C13.66875,1.305 13.32,1.305 13.095,1.53 L8.83125,5.79375 C8.4825,6.1425 8.73,6.75 9.23625,6.75 L11.25,6.75 L11.25,9.5625 C11.25,9.8775 11.4975,10.125 11.8125,10.125 Z M9.5625,11.25 L6.75,11.25 L6.75,9.23625 C6.75,8.73 6.1425,8.4825 5.79375,8.8425 L1.53,13.10625 C1.305,13.33125 1.305,13.68 1.53,13.905 L5.79375,18.16875 C6.1425,18.5175 6.75,18.27 6.75,17.76375 L6.75,15.75 L9.5625,15.75 C9.8775,15.75 10.125,15.5025 10.125,15.1875 L10.125,11.8125 C10.125,11.4975 9.8775,11.25 9.5625,11.25 Z M25.48125,13.10625 L21.2175,8.8425 C20.8575,8.4825 20.25,8.73 20.25,9.23625 L20.25,11.25 L17.4375,11.25 C17.1225,11.25 16.875,11.4975 16.875,11.8125 L16.875,15.1875 C16.875,15.5025 17.1225,15.75 17.4375,15.75 L20.25,15.75 L20.25,17.76375 C20.25,18.27 20.8575,18.5175 21.20625,18.1575 L25.47,13.89375 C25.695,13.68 25.695,13.32 25.48125,13.10625 L25.48125,13.10625 Z M15.1875,16.875 L11.8125,16.875 C11.4975,16.875 11.25,17.1225 11.25,17.4375 L11.25,20.25 L9.23625,20.25 C8.73,20.25 8.4825,20.8575 8.8425,21.20625 L13.10625,25.47 C13.33125,25.695 13.68,25.695 13.905,25.47 L18.16875,21.20625 C18.5175,20.8575 18.27,20.25 17.775,20.25 L15.75,20.25 L15.75,17.4375 C15.75,17.1225 15.5025,16.875 15.1875,16.875 Z" id="Shape" fill="#9B9B9B" fill-rule="nonzero"></path>
                    </g>
                </g>
            </g>
        </g>
    </g>
</svg>