<?xml version="1.0" encoding="UTF-8"?>
<svg width="20px" height="22px" viewBox="0 0 20 22" version="1.1" xmlns="http://www.w3.org/2000/svg" xmlns:xlink="http://www.w3.org/1999/xlink">
    <title>5975BD85-AB98-44B3-A668-950626D22148</title>
    <g id="Description" stroke="none" stroke-width="1" fill="none" fill-rule="evenodd">
        <g id="Select-a-signboard" transform="translate(-1099.000000, -100.000000)" fill="#9B9B9B">
            <g id="Group-13-Copy" transform="translate(30.500000, 83.000000)">
                <g id="Group-8" transform="translate(273.500000, 12.500000)">
                    <g id="Group" transform="translate(795.500000, 4.750000)">
                        <path d="M2.07623407,19.9622543 C2.10446633,20.4880235 2.66218814,20.9027778 3.34014707,20.9027778 L15.1505409,20.9027778 C15.8287307,20.9027778 16.3861448,20.4880235 16.4147617,19.9622543 L17.2581909,6.14787582 L1.23272792,6.14787582 L2.07623407,19.9622543 Z M11.9770724,9.49707375 C11.9770724,9.27727913 12.2033908,9.09885621 12.4829561,9.09885621 L13.2921883,9.09885621 C13.5714506,9.09885621 13.7981477,9.27727913 13.7981477,9.49707375 L13.7981477,17.3799928 C13.7981477,17.6000854 13.5714506,17.7782103 13.2921883,17.7782103 L12.4829561,17.7782103 C12.2036938,17.7782103 11.9770724,17.6000854 11.9770724,17.3799928 L11.9770724,9.49707375 Z M8.33492173,9.49707375 C8.33492173,9.27727913 8.56127778,9.09885621 8.84066236,9.09885621 L9.65025644,9.09885621 C9.92956526,9.09885621 10.1559971,9.27727913 10.1559971,9.49707375 L10.1559971,17.3799928 C10.1559971,17.6000854 9.92956526,17.7782103 9.65025644,17.7782103 L8.84066236,17.7782103 C8.56127778,17.7782103 8.33492173,17.6000854 8.33492173,17.3799928 L8.33492173,9.49707375 Z M4.69277106,9.49707375 C4.69277106,9.27727913 4.91908945,9.09885621 5.19873052,9.09885621 L6.00788694,9.09885621 C6.28722503,9.09885621 6.5138464,9.27727913 6.5138464,9.49707375 L6.5138464,17.3799928 C6.5138464,17.6000854 6.28722503,17.7782103 6.00788694,17.7782103 L5.19873052,17.7782103 C4.91939242,17.7782103 4.69277106,17.6000854 4.69277106,17.3799928 L4.69277106,9.49707375 Z" id="Fill-1"></path>
                        <path d="M17.7074375,1.38994376 L12.3302653,1.38994376 L12.3302653,0.284411753 C12.3302653,0.127386744 12.2131227,0 12.0687253,0 L6.42226942,0 C6.27779607,0 6.16065346,0.127386744 6.16065346,0.284411753 L6.16065346,1.38961353 L0.78348134,1.38961353 C0.350820472,1.38961353 0,1.7711133 0,2.24194065 L0,4.91830065 L18.4909188,4.91830065 L18.4909188,2.24194065 C18.4909188,1.77144353 18.1400983,1.38994376 17.7074375,1.38994376 Z" id="Fill-3"></path>
                    </g>
                </g>
            </g>
        </g>
    </g>
</svg>