<svg width="78" height="80" viewBox="0 0 78 80" fill="none" xmlns="http://www.w3.org/2000/svg">
<g id="storage-24px">
<path id="Shape" fill-rule="evenodd" clip-rule="evenodd" d="M8.32422 21.0728C8.32422 24.805 11.1953 27.8585 14.7043 27.8585H65.745C69.2541 27.8585 72.1251 24.805 72.1251 21.0728C72.1251 17.3407 69.2541 14.2871 65.745 14.2871H14.7043C11.1953 14.2871 8.32422 17.3407 8.32422 21.0728ZM65.745 68.5738H14.7043C11.1953 68.5738 8.32422 65.5203 8.32422 61.7881C8.32422 58.056 11.1953 55.0024 14.7043 55.0024H65.745C69.2541 55.0024 72.1251 58.056 72.1251 61.7881C72.1251 65.5203 69.2541 68.5738 65.745 68.5738ZM21.0866 58.394H14.7065V65.1776H21.0866V58.394ZM14.7065 24.4623H21.0866V17.6787H14.7065V24.4623ZM14.7043 48.2135H65.745C69.2541 48.2135 72.1251 45.1599 72.1251 41.4278C72.1251 37.6956 69.2541 34.6421 65.745 34.6421H14.7043C11.1953 34.6421 8.32422 37.6956 8.32422 41.4278C8.32422 45.1599 11.1953 48.2135 14.7043 48.2135ZM21.0866 38.0391H14.7065V44.8227H21.0866V38.0391Z" fill="#056694"/>
</g>
</svg>
