<svg width="80" height="80" viewBox="0 0 80 80" fill="none" xmlns="http://www.w3.org/2000/svg">
<g clip-path="url(#clip0_1784_19807)">
<path d="M68.9297 32.7852C73.0718 32.7852 76.4297 29.4273 76.4297 25.2852C76.4297 21.143 73.0718 17.7852 68.9297 17.7852C64.7876 17.7852 61.4297 21.143 61.4297 25.2852C61.4297 29.4273 64.7876 32.7852 68.9297 32.7852Z" fill="#056694"/>
<path d="M5.92969 33.7852C4.67969 34.7852 1.42969 36.0352 1.42969 37.7852V52.7852C1.42969 54.1112 1.95647 55.383 2.89415 56.3207C3.83184 57.2584 5.10361 57.7852 6.42969 57.7852H18.9297V36.5352C16.7954 37.7214 14.3044 38.0964 11.9155 37.591C9.52657 37.0857 7.40076 35.734 5.92969 33.7852Z" fill="#056694"/>
<path d="M13.9297 32.7852C18.0718 32.7852 21.4297 29.4273 21.4297 25.2852C21.4297 21.143 18.0718 17.7852 13.9297 17.7852C9.78755 17.7852 6.42969 21.143 6.42969 25.2852C6.42969 29.4273 9.78755 32.7852 13.9297 32.7852Z" fill="#056694"/>
<path d="M41.4297 30.2852C46.9525 30.2852 51.4297 25.808 51.4297 20.2852C51.4297 14.7623 46.9525 10.2852 41.4297 10.2852C35.9068 10.2852 31.4297 14.7623 31.4297 20.2852C31.4297 25.808 35.9068 30.2852 41.4297 30.2852Z" fill="#056694"/>
<path d="M76.9324 33.7852C75.4997 35.7834 73.3715 37.1735 70.966 37.6824C68.5604 38.1912 66.0516 37.782 63.9324 36.5352V43.9102C62.3096 43.4279 60.6254 43.1837 58.9324 43.1852V35.0352C58.1824 33.0352 54.1824 31.2852 52.6824 30.0352C47.6824 36.7852 35.4324 36.7852 30.4324 30.0352C28.9324 31.2852 24.9324 33.0352 24.1824 35.0352C24.0879 35.1339 24.0165 35.2524 23.9732 35.3821C23.93 35.5118 23.9161 35.6494 23.9324 35.7852V57.7852C23.9324 59.1112 24.4592 60.383 25.3969 61.3207C26.3346 62.2584 27.6063 62.7852 28.9324 62.7852H40.8324C40.8324 62.3102 40.8324 61.8352 40.8324 61.3352C40.8324 66.1488 42.7446 70.7654 46.1484 74.1691C49.5522 77.5729 54.1687 79.4852 58.9824 79.4852C63.7961 79.4852 68.4126 77.5729 71.8164 74.1691C75.2202 70.7654 77.1324 66.1488 77.1324 61.3352C77.113 60.1418 76.979 58.953 76.7324 57.7852C78.0058 57.7086 79.2018 57.1482 80.0756 56.2187C80.9493 55.2892 81.4347 54.0609 81.4324 52.7852V37.7852C81.4324 36.0352 78.1824 34.7852 76.9324 33.7852ZM58.9324 74.5352C56.3217 74.5352 53.7696 73.761 51.5989 72.3106C49.4282 70.8601 47.7363 68.7986 46.7372 66.3866C45.7381 63.9746 45.4767 61.3205 45.986 58.76C46.4954 56.1994 47.7525 53.8474 49.5986 52.0013C51.4447 50.1553 53.7967 48.8981 56.3572 48.3888C58.9178 47.8795 61.5718 48.1409 63.9838 49.1399C66.3958 50.139 68.4574 51.8309 69.9078 54.0016C71.3582 56.1724 72.1324 58.7244 72.1324 61.3352C72.1258 64.834 70.733 68.1876 68.2589 70.6617C65.7849 73.1357 62.4312 74.5286 58.9324 74.5352Z" fill="#056694"/>
<path d="M62.4801 56.1084L57.2801 61.3084L55.3801 59.4334C54.9018 59.0239 54.2866 58.8099 53.6574 58.8342C53.0282 58.8585 52.4314 59.1193 51.9861 59.5645C51.5409 60.0098 51.2801 60.6066 51.2558 61.2358C51.2315 61.865 51.4455 62.4802 51.8551 62.9584L55.4801 66.5835C55.9591 67.0403 56.5931 67.2992 57.2551 67.3084C57.9109 67.3057 58.5394 67.0453 59.0051 66.5835L65.955 59.6334C66.2431 59.4206 66.482 59.1483 66.6556 58.835C66.8292 58.5218 66.9335 58.1749 66.9614 57.8179C66.9893 57.4608 66.9402 57.1019 66.8173 56.7655C66.6945 56.4291 66.5008 56.123 66.2494 55.868C65.9979 55.6129 65.6946 55.4149 65.36 55.2872C65.0254 55.1596 64.6672 55.1053 64.3098 55.1281C63.9524 55.1509 63.6041 55.2503 63.2884 55.4194C62.9727 55.5885 62.697 55.8235 62.4801 56.1084Z" fill="#056694"/>
</g>
<defs>
<clipPath id="clip0_1784_19807">
<rect width="80" height="80" fill="white"/>
</clipPath>
</defs>
</svg>
