<svg width="20" height="20" viewBox="0 0 20 20" fill="none" xmlns="http://www.w3.org/2000/svg" shape-rendering="geometricPrecision">
<path fill-rule="evenodd" clip-rule="evenodd" d="M16.1701 10C16.1701 10.272 16.1455 10.528 16.1126 10.784L17.8479 12.104C18.0042 12.224 18.0453 12.44 17.9466 12.616L16.3017 15.384C16.203 15.56 15.9892 15.632 15.8 15.56L13.7522 14.76C13.3245 15.072 12.8639 15.344 12.3622 15.544L12.0497 17.664C12.025 17.856 11.8523 18 11.6467 18H8.35693C8.15132 18 7.97861 17.856 7.95393 17.664L7.64141 15.544C7.13972 15.344 6.67915 15.08 6.25148 14.76L4.2036 15.56C4.02266 15.624 3.8006 15.56 3.70191 15.384L2.05702 12.616C1.95833 12.44 1.99945 12.224 2.15571 12.104L3.89107 10.784C3.85817 10.528 3.8335 10.264 3.8335 10C3.8335 9.736 3.85817 9.472 3.89107 9.216L2.15571 7.896C1.99945 7.776 1.9501 7.56 2.05702 7.384L3.70191 4.616C3.8006 4.44 4.01443 4.368 4.2036 4.44L6.25148 5.24C6.67915 4.928 7.13972 4.656 7.64141 4.456L7.95393 2.336C7.97861 2.144 8.15132 2 8.35693 2H11.6467C11.8523 2 12.025 2.144 12.0497 2.336L12.3622 4.456C12.8639 4.656 13.3245 4.92 13.7522 5.24L15.8 4.44C15.981 4.376 16.203 4.44 16.3017 4.616L17.9466 7.384C18.0453 7.56 18.0042 7.776 17.8479 7.896L16.1126 9.216C16.1455 9.472 16.1701 9.728 16.1701 10ZM7.12329 9.99986C7.12329 11.5439 8.41453 12.7999 10.0018 12.7999C11.5892 12.7999 12.8804 11.5439 12.8804 9.99986C12.8804 8.45586 11.5892 7.19986 10.0018 7.19986C8.41453 7.19986 7.12329 8.45586 7.12329 9.99986Z" fill="#056694"/>
</svg>
