<svg width="20" height="20" viewBox="0 0 20 20" fill="none" xmlns="http://www.w3.org/2000/svg" shape-rendering="geometricPrecision">
<path fill-rule="evenodd" clip-rule="evenodd" d="M15.5 3H16.5C16.8 3 17 3.21111 17 3.52778C17 3.84444 16.8 4.05556 16.5 4.05556H16V12.5C16 12.8167 15.8 13.0278 15.5 13.0278H10.6L13.4 16.4056C13.6 16.6167 13.55 16.9333 13.35 17.1444C13.25 17.1972 13.1 17.25 13 17.25C12.85 17.25 12.7 17.1972 12.6 17.0917L10 13.925V16.1944C10 16.5111 9.8 16.7222 9.5 16.7222C9.2 16.7222 9 16.5111 9 16.1944V13.925L6.4 17.0917C6.3 17.1972 6.15 17.25 6 17.25C5.9 17.25 5.75 17.1972 5.7 17.0917C5.5 16.8806 5.45 16.5639 5.65 16.3528L8.4 13.0278H3.5C3.2 13.0278 3 12.8167 3 12.5V4.05556H2.5C2.2 4.05556 2 3.84444 2 3.52778C2 3.21111 2.2 3 2.5 3H3.5H15.5ZM11.9 9.12152L13.9 5.95486C14.05 5.69097 14 5.3743 13.75 5.16319C13.5 5.00486 13.2 5.05763 13.05 5.32152L11.3 8.11874L9.7 7.2743C9.65 7.22152 9.6 7.22152 9.5 7.22152H7.5C7.35 7.22152 7.25 7.2743 7.15 7.37985L5.15 9.49096C4.95 9.70207 4.95 10.0187 5.15 10.2299C5.25 10.3354 5.35 10.3882 5.5 10.3882C5.65 10.3882 5.75 10.3354 5.85 10.2299L7.7 8.27708H9.4L11.25 9.27985C11.5 9.43818 11.75 9.33263 11.9 9.12152Z" fill="#056694"/>
</svg>
