<svg width="78" height="73" viewBox="0 0 78 73" fill="none" xmlns="http://www.w3.org/2000/svg">
<g id="iconfinder_SEO_board_performance_profit_6619602">
<path id="Shape" fill-rule="evenodd" clip-rule="evenodd" d="M70.0589 0H75.2485C76.8053 0 77.8433 1.06904 77.8433 2.67259C77.8433 4.27615 76.8053 5.34519 75.2485 5.34519H72.6537V48.1067C72.6537 49.7102 71.6158 50.7793 70.0589 50.7793H44.6301L59.1609 67.8839C60.1988 68.9529 59.9393 70.5564 58.9014 71.6255C58.3824 71.8927 57.604 72.16 57.0851 72.16C56.3066 72.16 55.5282 71.8927 55.0092 71.3582L41.5164 55.3227V66.8148C41.5164 68.4184 40.4785 69.4874 38.9216 69.4874C37.3648 69.4874 36.3269 68.4184 36.3269 66.8148V55.3227L22.834 71.3582C22.3151 71.8927 21.5366 72.16 20.7582 72.16C20.2392 72.16 19.4608 71.8927 19.2013 71.3582C18.1634 70.2892 17.9039 68.6856 18.9419 67.6166L33.2131 50.7793H7.78433C6.22746 50.7793 5.18955 49.7102 5.18955 48.1067V5.34519H2.59478C1.03791 5.34519 0 4.27615 0 2.67259C0 1.06904 1.03791 0 2.59478 0H7.78433H70.0589ZM51.3811 31.0002L61.7602 14.9647C62.5387 13.6284 62.2792 12.0248 60.9818 10.9558C59.6844 10.154 58.1276 10.4213 57.3491 11.7576L48.2674 25.9223L39.9641 21.6462C39.7047 21.3789 39.4452 21.3789 38.9262 21.3789H28.5471C27.7687 21.3789 27.2497 21.6462 26.7308 22.1807L16.3517 32.871C15.3138 33.9401 15.3138 35.5436 16.3517 36.6127C16.8706 37.1472 17.3896 37.4144 18.168 37.4144C18.9465 37.4144 19.4654 37.1472 19.9844 36.6127L29.585 26.7241H38.4073L48.0079 31.802C49.3053 32.6038 50.6027 32.0693 51.3811 31.0002Z" fill="#056694"/>
</g>
</svg>
