<svg width="20" height="20" viewBox="0 0 20 20" fill="none" xmlns="http://www.w3.org/2000/svg" shape-rendering="geometricPrecision">
<path d="M1.34452 10.5993H2.81141C3.05589 11.4754 3.85046 12.1273 4.80802 12.1273C5.76557 12.1273 6.56014 11.4754 6.80462 10.5993H12.0202C12.2647 11.4754 13.0593 12.1273 14.0168 12.1273C14.9744 12.1273 15.769 11.4754 16.0134 10.5993H17.4803C17.8878 10.5993 18.2138 10.2733 18.2138 9.86587C18.2138 9.51952 17.9693 9.2343 17.623 9.17318V8.56197C17.623 7.56367 16.8895 6.72835 15.8912 6.62649L13.5279 6.34126L12.4481 3.9983C12.1629 3.3871 11.5516 3 10.8793 3H6.62126C5.41922 3 4.33942 3.73345 3.89121 4.85399L3.50411 5.81155L2.44469 6.34126C1.67049 6.70798 1.18153 7.50255 1.18153 8.33786V9.19355C0.855554 9.25467 0.590698 9.5399 0.590698 9.88625C0.611072 10.2733 0.937048 10.5993 1.34452 10.5993ZM14.0576 9.03056C14.6077 9.03056 15.0559 9.47878 15.0559 10.0289C15.0559 10.5789 14.6077 11.0272 14.0576 11.0272C13.5075 11.0272 13.0593 10.5789 13.0593 10.0289C13.0593 9.47878 13.5075 9.03056 14.0576 9.03056ZM9.02533 4.44652H10.8793C10.9812 4.44652 11.0831 4.50764 11.1238 4.60951L11.9184 6.32088H9.02533V4.44652ZM5.25623 5.3837C5.48034 4.81324 6.03043 4.44652 6.64163 4.44652H7.57881V6.32088H4.86914L5.25623 5.3837ZM4.82839 9.03056C5.37847 9.03056 5.82669 9.47878 5.82669 10.0289C5.82669 10.5789 5.37847 11.0272 4.82839 11.0272C4.2783 11.0272 3.83009 10.5789 3.83009 10.0289C3.83009 9.47878 4.2783 9.03056 4.82839 9.03056Z" fill="#056694"/>
<path d="M19.1715 13.2683L17.6842 11.781C17.4397 11.5365 17.0526 11.5365 16.8285 11.781C16.584 12.0255 16.584 12.4126 16.8285 12.6367L17.2767 13.0849H0.611205C0.285229 13.0849 0 13.3498 0 13.6961C0 14.0425 0.264856 14.3073 0.611205 14.3073H17.2767L16.8285 14.7556C16.584 15 16.584 15.3871 16.8285 15.6112C16.9508 15.7335 17.0934 15.7946 17.2564 15.7946C17.4194 15.7946 17.562 15.7335 17.6842 15.6112L19.1715 14.124C19.416 13.8999 19.416 13.5128 19.1715 13.2683Z" fill="#056694"/>
</svg>
