<svg width="20" height="20" viewBox="0 0 20 20" fill="none" xmlns="http://www.w3.org/2000/svg" shape-rendering="geometricPrecision">
<path fill-rule="evenodd" clip-rule="evenodd" d="M2 4.625C2 5.51875 2.68754 6.25 3.52786 6.25H15.7508C16.5911 6.25 17.2786 5.51875 17.2786 4.625C17.2786 3.73125 16.5911 3 15.7508 3H3.52786C2.68754 3 2 3.73125 2 4.625ZM15.7508 16H3.52786C2.68754 16 2 15.2688 2 14.375C2 13.4813 2.68754 12.75 3.52786 12.75H15.7508C16.5911 12.75 17.2786 13.4813 17.2786 14.375C17.2786 15.2688 16.5911 16 15.7508 16ZM5.05573 13.5625H3.52786V15.187H5.05573V13.5625ZM3.52786 5.43673H5.05573V3.81224H3.52786V5.43673ZM3.52786 11.125H15.7508C16.5911 11.125 17.2786 10.3938 17.2786 9.50001C17.2786 8.60626 16.5911 7.87501 15.7508 7.87501H3.52786C2.68754 7.87501 2 8.60626 2 9.50001C2 10.3938 2.68754 11.125 3.52786 11.125ZM5.05573 8.68752H3.52786V10.312H5.05573V8.68752Z" fill="#056694"/>
</svg>
