<svg width="78" height="80" viewBox="0 0 78 80" fill="none" xmlns="http://www.w3.org/2000/svg">
<g id="settings-24px (2)">
<path id="Shape" fill-rule="evenodd" clip-rule="evenodd" d="M62.055 41.4294C62.055 42.5465 61.9566 43.598 61.8254 44.6494L68.7452 50.0708C69.3684 50.5637 69.5323 51.4508 69.1388 52.1737L62.5797 63.5422C62.1862 64.2651 61.3335 64.5608 60.5792 64.2651L52.4132 60.9794C50.7078 62.2608 48.8713 63.3779 46.8707 64.1994L45.6245 72.9065C45.5261 73.6951 44.8374 74.2865 44.0175 74.2865H30.8994C30.0795 74.2865 29.3908 73.6951 29.2924 72.9065L28.0462 64.1994C26.0457 63.3779 24.2091 62.2937 22.5038 60.9794L14.3377 64.2651C13.6162 64.528 12.7308 64.2651 12.3372 63.5422L5.77816 52.1737C5.38461 51.4508 5.54859 50.5637 6.1717 50.0708L13.0915 44.6494C12.9603 43.598 12.862 42.5137 12.862 41.4294C12.862 40.3451 12.9603 39.2608 13.0915 38.2094L6.1717 32.788C5.54859 32.2951 5.35182 31.408 5.77816 30.6851L12.3372 19.3165C12.7308 18.5937 13.5835 18.298 14.3377 18.5937L22.5038 21.8794C24.2091 20.598 26.0457 19.4808 28.0462 18.6594L29.2924 9.95226C29.3908 9.16369 30.0795 8.57227 30.8994 8.57227H44.0175C44.8374 8.57227 45.5261 9.16369 45.6245 9.95226L46.8707 18.6594C48.8713 19.4808 50.7078 20.5651 52.4132 21.8794L60.5792 18.5937C61.3007 18.3308 62.1862 18.5937 62.5797 19.3165L69.1388 30.6851C69.5323 31.408 69.3684 32.2951 68.7452 32.788L61.8254 38.2094C61.9566 39.2608 62.055 40.3122 62.055 41.4294ZM25.9762 41.4295C25.9762 47.7709 31.125 52.9295 37.4545 52.9295C43.784 52.9295 48.9329 47.7709 48.9329 41.4295C48.9329 35.0881 43.784 29.9295 37.4545 29.9295C31.125 29.9295 25.9762 35.0881 25.9762 41.4295Z" fill="#056694"/>
</g>
</svg>
