<svg width="86" height="83" viewBox="0 0 86 83" fill="none" xmlns="http://www.w3.org/2000/svg">
<g clip-path="url(#clip0_1784_19829)">
<path d="M8.52951 47.6016H14.82C15.8685 51.2373 19.2758 53.9429 23.3821 53.9429C27.4885 53.9429 30.8958 51.2373 31.9442 47.6016H54.3105C55.359 51.2373 58.7663 53.9429 62.8727 53.9429C66.979 53.9429 70.3863 51.2373 71.4348 47.6016H77.7253C79.4727 47.6016 80.8705 46.2488 80.8705 44.5578C80.8705 43.1205 79.8221 41.9368 78.3369 41.6831V39.1466C78.3369 35.0037 75.1916 31.5371 70.9105 31.1144L60.7758 29.9307L56.1453 20.2074C54.9221 17.6709 52.3011 16.0645 49.4179 16.0645H31.1579C26.0032 16.0645 21.3727 19.1083 19.4506 23.7585L17.7906 27.7324L13.2474 29.9307C9.9274 31.4526 7.83056 34.75 7.83056 38.2166V41.7677C6.43266 42.0213 5.29688 43.205 5.29688 44.6424C5.38424 46.2488 6.78214 47.6016 8.52951 47.6016ZM63.0474 41.0913C65.4063 41.0913 67.3284 42.9514 67.3284 45.2342C67.3284 47.5171 65.4063 49.3772 63.0474 49.3772C60.6884 49.3772 58.7663 47.5171 58.7663 45.2342C58.7663 42.9514 60.6884 41.0913 63.0474 41.0913ZM41.4674 22.0675H49.4179C49.8548 22.0675 50.2916 22.3212 50.4663 22.7439L53.8737 29.8461H41.4674V22.0675ZM25.3042 25.9568C26.2653 23.5894 28.6242 22.0675 31.2453 22.0675H35.2642V29.8461H23.6442L25.3042 25.9568ZM23.4695 41.0913C25.8285 41.0913 27.7506 42.9514 27.7506 45.2342C27.7506 47.5171 25.8285 49.3772 23.4695 49.3772C21.1106 49.3772 19.1885 47.5171 19.1885 45.2342C19.1885 42.9514 21.1106 41.0913 23.4695 41.0913Z" fill="#056694"/>
<path d="M84.9793 58.6772L78.6014 52.5051C77.553 51.4905 75.893 51.4905 74.9319 52.5051C73.8835 53.5197 73.8835 55.1261 74.9319 56.0562L76.8541 57.9163H5.38668C3.98878 57.9163 2.76562 59.0154 2.76562 60.4528C2.76562 61.8901 3.90141 62.9893 5.38668 62.9893H76.8541L74.9319 64.8494C73.8835 65.864 73.8835 67.4705 74.9319 68.4005C75.4562 68.9078 76.0677 69.1615 76.7667 69.1615C77.4656 69.1615 78.0772 68.9078 78.6014 68.4005L84.9793 62.2283C86.0277 61.2983 86.0277 59.6918 84.9793 58.6772Z" fill="#056694"/>
</g>
<defs>
<clipPath id="clip0_1784_19829">
<rect width="85.7667" height="83" fill="white"/>
</clipPath>
</defs>
</svg>
