<svg width="86" height="83" viewBox="0 0 72 72" fill="none" xmlns="http://www.w3.org/2000/svg">
<g clip-path="url(#clip0_1784_19800)">
<path fill-rule="evenodd" clip-rule="evenodd" d="M64.5565 56.487V16.1391C69.0109 16.1391 72.6261 12.528 72.6261 8.06957C72.6261 3.61517 69.0109 0 64.5565 0C60.0981 0 56.487 3.61517 56.487 8.06957H16.1391C16.1391 3.61517 12.528 0 8.06956 0C3.61113 0 0 3.61517 0 8.06957C0 12.528 3.61113 16.1391 8.06956 16.1391V56.487C3.61113 56.487 0 60.1021 0 64.5565C0 69.015 3.61113 72.6261 8.06956 72.6261C12.528 72.6261 16.1391 69.015 16.1391 64.5565H56.487C56.487 69.015 60.0981 72.6261 64.5565 72.6261C69.0109 72.6261 72.6261 69.015 72.6261 64.5565C72.6261 60.1021 69.0109 56.487 64.5565 56.487ZM12.1043 15.0175C13.3148 14.3154 14.3154 13.3148 15.0215 12.1043H24.2087L12.1043 24.2087V15.0175ZM12.1043 28.2435L28.2435 12.1043H36.313L12.1043 36.313V28.2435ZM12.1043 40.3478L40.3478 12.1043H48.4174L12.1043 48.4174V40.3478ZM13.7506 58.8756C13.2623 58.3833 12.7096 57.9597 12.1043 57.6046V52.4522L52.4522 12.1043H57.6046C57.9596 12.7096 58.3833 13.2623 58.8755 13.7505L13.7506 58.8756ZM60.5217 57.6046C59.3113 58.3107 58.3106 59.3113 57.6046 60.5217H52.4522L60.5217 52.4522V57.6046ZM60.5217 48.4174L48.4174 60.5217H40.3478L60.5217 40.3478V48.4174ZM60.5217 36.313L36.313 60.5217H28.2435L60.5217 28.2435V36.313ZM60.5217 24.2087L24.2087 60.5217H16.1391L60.5217 16.1391V24.2087Z" fill="#056694"/>
</g>
<defs>
<clipPath id="clip0_1784_19800">
<rect width="72" height="72" fill="white"/>
</clipPath>
</defs>
</svg>
