<svg width="78" height="80" viewBox="0 0 78 80" fill="none" xmlns="http://www.w3.org/2000/svg">
<g id="storage-24px">
<g id="Group">
<path id="Vector" d="M9.862 37.7518H40.0982L42.3527 32.3809H9.862C9.39784 32.3809 9 32.7787 9 33.2429V36.8235C9 37.3539 9.39784 37.7518 9.862 37.7518Z" fill="#056694"/>
<path id="Vector_2" d="M9.862 24.4236H45.6017L47.7899 19.0527H9.862C9.39784 19.0527 9 19.4506 9 19.9147V23.4953C9 24.0258 9.39784 24.4236 9.862 24.4236Z" fill="#056694"/>
<path id="Vector_3" d="M9 46.6373V50.2179C9 50.682 9.39784 51.0799 9.862 51.0799H34.5284C34.5284 51.0136 34.5284 51.0136 34.5947 50.9473L36.7828 45.709H9.862C9.39784 45.709 9 46.1068 9 46.6373Z" fill="#056694"/>
<path id="Vector_4" d="M9.862 59.037C9.39784 59.037 9 59.4349 9 59.899V63.4796C9 63.9438 9.39784 64.3416 9.862 64.3416H35.5893L34.7936 58.9707H9.862V59.037Z" fill="#056694"/>
<path id="Vector_5" d="M70.7346 19.12C67.4856 16.4677 62.7777 14.4785 58.534 14.0143C57.009 13.8817 55.5502 14.6774 54.9534 16.1361L39.5701 53.0031C39.4375 53.3346 39.4375 53.6662 39.4375 53.9314L41.5593 67.9223C41.6256 68.519 42.0898 69.0495 42.6203 69.3147C43.217 69.58 43.8801 69.4474 44.3443 69.1158L55.7491 60.7611C56.0144 60.5621 56.2133 60.2969 56.3459 60.0317L56.9427 58.7055L71.7292 23.1647C72.326 21.706 71.9282 20.1146 70.7346 19.12ZM47.9912 62.0872C46.8639 61.1589 45.5378 60.6285 44.079 60.4295L43.1507 54.1966C46.5987 54.5945 50.4445 56.1859 53.0968 58.374L47.9912 62.0872Z" fill="#056694"/>
</g>
</g>
</svg>
