<svg width="25" height="24" viewBox="0 0 25 24" fill="none" xmlns="http://www.w3.org/2000/svg">
<path fill-rule="evenodd" clip-rule="evenodd" d="M21.5207 18.4448V5.55595C22.9436 5.55595 24.0984 4.40239 24.0984 2.97817C24.0984 1.55524 22.9436 0.400391 21.5207 0.400391C20.0964 0.400391 18.9429 1.55524 18.9429 2.97817H6.05399C6.05399 1.55524 4.90044 0.400391 3.47622 0.400391C2.05199 0.400391 0.898438 1.55524 0.898438 2.97817C0.898438 4.40239 2.05199 5.55595 3.47622 5.55595V18.4448C2.05199 18.4448 0.898438 19.5997 0.898438 21.0226C0.898438 22.4468 2.05199 23.6004 3.47622 23.6004C4.90044 23.6004 6.05399 22.4468 6.05399 21.0226H18.9429C18.9429 22.4468 20.0964 23.6004 21.5207 23.6004C22.9436 23.6004 24.0984 22.4468 24.0984 21.0226C24.0984 19.5997 22.9436 18.4448 21.5207 18.4448ZM4.7651 5.19764C5.15177 4.97337 5.47142 4.65372 5.69698 4.26706H8.63177L4.7651 8.13372V5.19764ZM4.7651 9.42261L9.92066 4.26706H12.4984L4.7651 12.0004V9.42261ZM4.7651 13.2893L13.7873 4.26706H16.3651L4.7651 15.8671V13.2893ZM5.29098 19.2079C5.13502 19.0506 4.95844 18.9153 4.7651 18.8019V17.1559L17.654 4.26706H19.2999C19.4133 4.46039 19.5487 4.63696 19.7059 4.79292L5.29098 19.2079ZM20.2318 18.8019C19.8451 19.0274 19.5254 19.3471 19.2999 19.7337H17.654L20.2318 17.1559V18.8019ZM20.2318 15.8671L16.3651 19.7337H13.7873L20.2318 13.2893V15.8671ZM20.2318 12.0004L12.4984 19.7337H9.92066L20.2318 9.42261V12.0004ZM20.2318 8.13372L8.63177 19.7337H6.05399L20.2318 5.55595V8.13372Z" fill="#056694"/>
</svg>
